<svg height="512pt" viewBox="0 0 512.001 512" width="512pt" xmlns="http://www.w3.org/2000/svg"><path d="m456.582031 283.070312c-18.199219 0-34.375 8.816407-44.484375 22.398438l-42.296875-18.039062c2.917969-10.273438 4.480469-21.113282 4.480469-32.308594 0-10.328125-1.332031-20.351563-3.828125-29.910156l43.410156-17.449219c10.171875 12.304687 25.546875 20.152343 42.71875 20.152343 30.558594 0 55.417969-24.859374 55.417969-55.417968s-24.859375-55.417969-55.417969-55.417969c-30.558593 0-55.417969 24.859375-55.417969 55.417969 0 2.652344.1875 5.261718.550782 7.820312l-42.480469 17.074219c-10.304687-18.382813-25.367187-33.753906-43.511719-44.429687l18.097656-42.414063c1.867188.191406 3.765626.289063 5.683594.289063 30.558594 0 55.417969-24.859376 55.417969-55.417969 0-30.554688-24.859375-55.417969-55.417969-55.417969s-55.417968 24.863281-55.417968 55.417969c0 17.949219 8.570312 33.925781 21.839843 44.0625l-17.78125 41.675781c-10.277343-2.917969-21.113281-4.480469-32.3125-4.480469-10.324219 0-20.34375 1.328125-29.898437 3.824219l-17.058594-42.429688c12.484375-10.386718 20.050781-25.976562 20.050781-42.652343 0-30.558594-24.863281-55.417969-55.417969-55.417969-30.558593 0-55.417968 24.859375-55.417968 55.417969 0 30.558593 24.859375 55.417969 55.417968 55.417969 2.679688 0 5.328126-.1875 7.941407-.5625l16.660156 41.441406c-18.386719 10.304687-33.757813 25.371094-44.4375 43.515625l-42.9375-18.3125c.070313-1.128907.105469-2.265625.105469-3.410157 0-30.554687-24.863282-55.417968-55.421875-55.417968-30.558594 0-55.417969 24.863281-55.417969 55.417968 0 30.558594 24.859375 55.421876 55.417969 55.421876 18.742187 0 35.34375-9.351563 45.378906-23.636719l41.066406 17.519531c-2.914062 10.273438-4.476562 21.113281-4.476562 32.308594 0 10.328125 1.328125 20.347656 3.824219 29.90625l-43.628907 17.535156c-10.171875-11.921875-25.300781-19.492188-42.164062-19.492188-30.558594 0-55.417969 24.859376-55.417969 55.417969 0 30.558594 24.859375 55.417969 55.417969 55.417969 30.558593 0 55.421875-24.859375 55.421875-55.417969 0-2.941406-.234375-5.832031-.675782-8.652343l42.265626-16.988282c10.304687 18.382813 25.367187 33.753906 43.511718 44.433594l-18.769531 43.996094c-1.21875-.082032-2.441406-.121094-3.664063-.121094-30.558593 0-55.417968 24.863281-55.417968 55.425781 0 30.558594 24.859375 55.417969 55.417968 55.417969 30.554688 0 55.417969-24.859375 55.417969-55.417969 0-18.363281-8.984375-35.085937-23.417969-45.277343l18.011719-42.214844c10.277344 2.914062 21.117188 4.476562 32.3125 4.476562 10.324219 0 20.347657-1.328125 29.902344-3.820312l17.542969 43.648437c-12.332032 10.175781-20.207032 25.566407-20.207032 42.765625 0 30.558594 24.863282 55.417969 55.417969 55.417969 30.558594 0 55.421875-24.859375 55.421875-55.417969s-24.863281-55.417968-55.421875-55.417968c-2.628906 0-5.214843.183593-7.746093.539062l-17.183594-42.753906c18.386718-10.304688 33.757812-25.371094 44.4375-43.515625l43.386718 18.503906c-.144531 1.640625-.21875 3.296875-.21875 4.972656 0 30.558594 24.859376 55.421875 55.417969 55.421875 30.558594 0 55.417969-24.863281 55.417969-55.421875 0-30.558593-24.859375-55.417969-55.417969-55.417969zm0-135.992187c14.015625 0 25.417969 11.402344 25.417969 25.417969s-11.402344 25.417968-25.417969 25.417968-25.421875-11.402343-25.421875-25.417968 11.40625-25.417969 25.421875-25.417969zm-117.078125-117.078125c14.015625 0 25.417969 11.402344 25.417969 25.417969s-11.402344 25.417969-25.417969 25.417969-25.417968-11.402344-25.417968-25.417969 11.402343-25.417969 25.417968-25.417969zm-191.414062 25.417969c0-14.015625 11.398437-25.417969 25.417968-25.417969 14.015626 0 25.417969 11.402344 25.417969 25.417969 0 9.910156-5.828125 18.988281-14.84375 23.121093-3.320312 1.523438-6.878906 2.296876-10.574219 2.296876-14.015624 0-25.417968-11.402344-25.417968-25.417969zm-92.671875 143.511719c-14.015625 0-25.417969-11.402344-25.417969-25.421876 0-14.015624 11.402344-25.417968 25.417969-25.417968s25.421875 11.40625 25.421875 25.417968c0 14.019532-11.402344 25.421876-25.421875 25.421876zm0 164.976562c-14.015625 0-25.417969-11.402344-25.417969-25.417969s11.402344-25.417969 25.417969-25.417969 25.421875 11.402344 25.421875 25.417969-11.402344 25.417969-25.421875 25.417969zm118.089843 118.09375c-14.019531 0-25.417968-11.402344-25.417968-25.417969 0-14.019531 11.398437-25.425781 25.417968-25.425781 2.753907 0 5.449219.429688 8.015626 1.285156 10.410156 3.457032 17.402343 13.160156 17.402343 24.140625 0 14.015625-11.402343 25.417969-25.417969 25.417969zm190.402344-25.839844c0 14.015625-11.402344 25.417969-25.421875 25.417969-14.015625 0-25.417969-11.402344-25.417969-25.417969 0-14.019531 11.402344-25.417968 25.417969-25.417968 14.019531 0 25.421875 11.402343 25.421875 25.417968zm-108.078125-112.59375c-48.769531 0-88.445312-39.675781-88.445312-88.445312 0-48.769532 39.675781-88.445313 88.445312-88.445313s88.445313 39.675781 88.445313 88.445313c0 48.769531-39.675782 88.445312-88.445313 88.445312zm200.75 20.339844c-14.015625 0-25.421875-11.402344-25.421875-25.417969s11.40625-25.417969 25.421875-25.417969 25.417969 11.402344 25.417969 25.417969-11.402344 25.417969-25.417969 25.417969zm0 0"/><path d="m228.039062 317.371094c-2.539062 0-5.117187-.648438-7.476562-2.007813-21.589844-12.453125-35.035156-35.65625-35.085938-60.558593-.015624-8.28125 6.6875-15.011719 14.96875-15.027344h.03125c8.273438 0 14.984376 6.695312 15 14.96875.03125 14.234375 7.722657 27.503906 20.074219 34.628906 7.175781 4.136719 9.636719 13.308594 5.5 20.488281-2.777343 4.8125-7.824219 7.507813-13.011719 7.507813zm55.035157-.058594c-5.175781 0-10.210938-2.683594-12.992188-7.480469-4.152343-7.167969-1.710937-16.347656 5.457031-20.5 12.335938-7.148437 20-20.433593 20-34.667969-.054687-8.285156 6.617188-15.109374 14.902344-15.160156h.101563c8.238281 0 14.941406 6.585938 14.996093 14.835938v.421875c0 24.800781-13.394531 48.03125-34.957031 60.527343-2.367187 1.371094-4.953125 2.023438-7.507812 2.023438zm-55.203125-95.238281c-5.164063 0-10.191406-2.667969-12.976563-7.453125-4.167969-7.160156-1.746093-16.34375 5.414063-20.511719 10.648437-6.199219 22.820312-9.480469 35.195312-9.480469h.003906c12.226563 0 24.265626 3.203125 34.820313 9.261719 7.183594 4.125 9.667969 13.292969 5.542969 20.476563-4.125 7.183593-13.292969 9.664062-20.476563 5.542968-6.015625-3.453125-12.894531-5.28125-19.886719-5.28125 0 0 0 0-.003906 0-7.078125 0-14.027344 1.871094-20.101562 5.40625-2.371094 1.382813-4.96875 2.039063-7.53125 2.039063zm0 0"/></svg>