<?xml version="1.0"?>
<svg xmlns="http://www.w3.org/2000/svg" xmlns:xlink="http://www.w3.org/1999/xlink" xmlns:svgjs="http://svgjs.com/svgjs" version="1.1" width="512" height="512" x="0" y="0" viewBox="0 0 35.738 35.738" style="enable-background:new 0 0 512 512" xml:space="preserve"><circle r="17.869" cx="17.869" cy="17.869" fill="#ffffff" shape="circle"/><g transform="matrix(0.7,0,0,0.7,5.360699844360353,5.360774230957032)">
<g xmlns="http://www.w3.org/2000/svg">
	<path d="M0,35.667c0,0,11.596-37.07,35.738-35.55c0,0-2.994,4.849-10.551,6.416c0,0,3.518,0.429,6.369-0.522   c0,0-1.711,5.515-11.025,6.273c0,0,5.133,1.331,7.414,0.57c0,0-0.619,4.111-10.102,6.154c-0.562,0.12-4.347,1.067-1.306,1.448   c0,0,4.371,0.763,5.514,0.381c0,0-3.744,5.607-12.928,5.132c-0.903-0.047-1.332,0-1.332,0L0,35.667z" fill="#000000" data-original="#000000" style=""/>
</g>
<g xmlns="http://www.w3.org/2000/svg">
</g>
<g xmlns="http://www.w3.org/2000/svg">
</g>
<g xmlns="http://www.w3.org/2000/svg">
</g>
<g xmlns="http://www.w3.org/2000/svg">
</g>
<g xmlns="http://www.w3.org/2000/svg">
</g>
<g xmlns="http://www.w3.org/2000/svg">
</g>
<g xmlns="http://www.w3.org/2000/svg">
</g>
<g xmlns="http://www.w3.org/2000/svg">
</g>
<g xmlns="http://www.w3.org/2000/svg">
</g>
<g xmlns="http://www.w3.org/2000/svg">
</g>
<g xmlns="http://www.w3.org/2000/svg">
</g>
<g xmlns="http://www.w3.org/2000/svg">
</g>
<g xmlns="http://www.w3.org/2000/svg">
</g>
<g xmlns="http://www.w3.org/2000/svg">
</g>
<g xmlns="http://www.w3.org/2000/svg">
</g>
</g></svg>
