<?xml version="1.0" standalone="no"?>
<!DOCTYPE svg PUBLIC "-//W3C//DTD SVG 20010904//EN"
 "http://www.w3.org/TR/2001/REC-SVG-20010904/DTD/svg10.dtd">
<svg version="1.0" xmlns="http://www.w3.org/2000/svg"
 width="421.000000pt" height="424.000000pt" viewBox="0 0 421.000000 424.000000"
 preserveAspectRatio="xMidYMid meet">
<metadata>
Created by potrace 1.16, written by Peter Selinger 2001-2019
</metadata>
<g transform="translate(0.000000,424.000000) scale(0.100000,-0.100000)"
fill="#000000" stroke="none">
<path d="M560 4207 c8 -7 86 -76 173 -151 l159 -138 1459 17 c803 10 1461 16
1463 14 2 -2 11 -677 21 -1499 l16 -1495 172 -166 172 -167 3 35 c3 36 -32
2671 -44 3238 l-6 320 -1802 3 c-1553 3 -1799 2 -1786 -11z"/>
<path d="M510 2269 l0 -1796 278 -7 c152 -3 795 -13 1427 -21 633 -8 1318 -17
1523 -21 204 -3 372 -4 372 -1 0 3 -74 71 -165 151 l-164 146 -1466 0 -1465 0
0 1503 0 1502 -170 170 -170 170 0 -1796z"/>
<path d="M20 1668 l0 -1605 253 -7 c138 -3 758 -13 1377 -21 619 -8 1233 -17
1365 -20 235 -6 240 -5 220 13 -11 10 -81 73 -156 140 l-137 122 -1311 0
-1311 0 0 1348 0 1347 -107 105 c-60 58 -127 123 -150 145 l-43 39 0 -1606z"/>
<path d="M2385 3194 c-11 -2 -45 -10 -75 -16 -30 -7 -77 -20 -105 -31 -27 -10
-59 -21 -70 -25 -11 -3 -33 -14 -50 -23 -16 -10 -46 -27 -66 -38 -59 -33 -182
-161 -222 -232 -63 -113 -78 -166 -84 -303 -4 -75 -1 -111 12 -152 43 -138
179 -236 435 -313 58 -18 113 -37 122 -42 10 -5 22 -9 27 -9 17 0 136 -58 164
-80 112 -88 48 -279 -107 -321 -23 -6 -98 -11 -168 -11 -115 1 -135 3 -218 32
-126 43 -230 101 -299 167 -19 19 -27 21 -38 11 -16 -13 -213 -286 -220 -304
-10 -26 166 -140 272 -178 28 -10 59 -22 70 -26 11 -5 34 -12 50 -16 17 -4 35
-8 40 -10 123 -30 352 -39 480 -17 262 45 461 176 558 368 40 79 42 84 58 195
35 235 -40 379 -252 483 -52 26 -100 47 -107 47 -7 0 -20 4 -30 9 -9 5 -78 29
-152 52 -227 72 -284 116 -279 214 6 113 61 180 180 216 121 37 285 17 429
-53 41 -20 140 -90 140 -99 0 -21 30 -6 48 24 11 17 61 85 111 149 l91 117
-29 27 c-35 31 -119 82 -176 108 -72 32 -80 35 -120 47 -22 6 -51 16 -65 21
-26 11 -320 21 -355 12z"/>
</g>
</svg>
